<svg width="29" height="33" viewBox="0 0 29 33" fill="none" xmlns="http://www.w3.org/2000/svg">
<path d="M23.8509 26.2698L22.4282 25.4499V22.6013C22.4282 22.5211 22.3963 22.4442 22.3395 22.3875C22.2827 22.3308 22.2056 22.299 22.1253 22.299C22.0449 22.299 21.9679 22.3308 21.9111 22.3875C21.8543 22.4442 21.8223 22.5211 21.8223 22.6013V25.6246C21.8223 25.6777 21.8363 25.7298 21.8629 25.7758C21.8895 25.8217 21.9278 25.8599 21.9738 25.8864L23.548 26.7934C23.5823 26.8135 23.6203 26.8266 23.6598 26.8319C23.6992 26.8372 23.7393 26.8346 23.7778 26.8243C23.8162 26.814 23.8522 26.7962 23.8837 26.7719C23.9152 26.7476 23.9415 26.7173 23.9612 26.6828C24.0014 26.6134 24.0124 26.5309 23.9917 26.4535C23.971 26.3761 23.9204 26.31 23.8509 26.2698ZM22.1253 19.578C18.7789 19.578 16.0662 22.2851 16.0662 25.6246C16.0662 28.9642 18.7789 31.6712 22.1253 31.6712C25.4699 31.6676 28.1808 28.9624 28.1844 25.6246C28.1844 22.2851 25.4717 19.578 22.1253 19.578ZM22.1253 31.0666C21.4092 31.0666 20.7001 30.9258 20.0384 30.6523C19.3768 30.3789 18.7757 29.978 18.2693 29.4727C17.7629 28.9673 17.3613 28.3674 17.0872 27.7072C16.8132 27.0469 16.6721 26.3393 16.6721 25.6246C16.6721 24.91 16.8132 24.2023 17.0872 23.5421C17.3613 22.8818 17.7629 22.2819 18.2693 21.7766C18.7757 21.2712 19.3768 20.8704 20.0384 20.5969C20.7001 20.3234 21.4092 20.1826 22.1253 20.1826C23.5711 20.1842 24.9572 20.7581 25.9795 21.7783C27.0018 22.7985 27.5769 24.1818 27.5785 25.6246C27.5785 27.0679 27.004 28.4521 25.9813 29.4727C24.9586 30.4932 23.5716 31.0666 22.1253 31.0666Z" fill="#888888" stroke="#A1A3AB"/>
<path d="M15.8909 2.39129H13.5073V1.59419C13.506 1.17178 13.3382 0.767019 13.0404 0.468322C12.7427 0.169626 12.3392 0.00126159 11.9182 0H5.56182C5.14075 0.00126159 4.73729 0.169626 4.43955 0.468322C4.14181 0.767019 3.97398 1.17178 3.97273 1.59419V2.39129H1.58909C1.16802 2.39255 0.764563 2.56092 0.466823 2.85961C0.169083 3.15831 0.00125755 3.56307 0 3.98549V20.7245C0.00125755 21.1469 0.169083 21.5517 0.466823 21.8504C0.764563 22.1491 1.16802 22.3175 1.58909 22.3187H8.74V20.7245H1.58909V3.98549H3.97273V6.37678H13.5073V3.98549H15.8909V12.7536H17.48V3.98549C17.4787 3.56307 17.3109 3.15831 17.0132 2.85961C16.7154 2.56092 16.312 2.39255 15.8909 2.39129ZM11.9182 4.78258H5.56182V1.59419H11.9182V4.78258Z" fill="#A1A3AB"/>
</svg>
